<svg width="700" height="631" viewBox="0 0 700 631" fill="none" xmlns="http://www.w3.org/2000/svg">
<path d="M180.279 86.7063C178.631 97.0212 177.946 104.225 176.242 111.188C174.835 116.892 175.631 120.41 181.149 123.521C204.927 136.91 228.557 150.558 252.02 164.503C257.631 167.836 260.649 166.41 264.705 162.04C311.557 111.558 388.464 111.28 435.242 161.558C440.002 166.688 443.335 167.632 449.446 163.984C472.057 150.466 494.872 137.299 517.854 124.429C524.224 120.873 525.705 117.058 523.854 110.003C512.039 65.0581 540.372 16.2618 585.224 3.68768C632.761 -9.64568 682.132 16.3173 695.798 61.8544C707.984 102.429 693.113 143.521 658.354 165.355C623.946 186.984 580.465 182.892 549.65 154.595C544.002 149.41 540.057 148.91 533.446 152.892C511.15 166.318 488.52 179.169 465.779 191.855C459.631 195.281 458.483 198.892 460.52 205.54C480.428 270.114 443.335 335.725 377.594 352.077C369.576 354.077 366.261 357.17 366.464 365.91C367.057 391.633 366.798 417.392 366.539 443.114C366.464 449.725 368.353 453.04 375.279 455.04C417.113 467.114 442.224 504.818 439.076 549.874C436.279 589.911 404.242 623.041 362.168 629.355C321.501 635.466 281.409 611.633 266.261 572.374C247.798 524.503 274.724 469.892 324.594 455.207C331.853 453.077 333.946 449.837 333.853 442.799C333.557 417.059 333.372 391.318 333.946 365.596C334.131 357.244 330.964 354.336 323.409 352.318C275.057 339.447 245.927 308.096 236.094 259.151C232.575 241.633 233.668 223.984 239.446 207.095C242.316 198.688 240.075 194.873 232.724 190.836C211.02 178.892 189.557 166.484 168.372 153.651C161.075 149.225 156.575 149.392 149.853 155.503C100.668 200.077 23.6676 178.669 4.00094 115.299C-10.0361 70.0952 13.9454 22.2247 58.9825 5.48397C102.797 -10.7938 153.279 10.3358 171.279 53.3729C176.02 64.7248 177.835 77.3174 180.298 86.7249L180.279 86.7063ZM376.502 268.04C373.631 264.17 372.168 262.633 371.205 260.818C360.983 241.392 350.909 221.91 340.687 202.484C332.057 186.095 326.835 183.466 308.409 185.336C301.224 186.058 297.613 189.614 297.613 196.855C297.613 231.373 297.705 265.892 297.613 300.41C297.594 308.984 303.113 309.855 309.557 309.929C316.409 310.022 321.168 308.096 320.927 299.855C320.631 289.818 320.853 279.781 320.853 269.725C320.853 254.003 320.853 238.281 320.853 220.799C323.205 223.744 324.631 225.021 325.464 226.595C335.798 246.318 346.001 266.096 356.335 285.799C359.242 291.355 362.094 296.984 365.65 302.114C370.52 309.17 382.372 311.762 392.279 308.781C401.594 305.966 399.705 298.281 399.724 291.633C399.835 260.244 399.539 228.873 399.872 197.484C399.964 188.855 397.409 184.688 388.224 184.725C379.242 184.762 376.224 188.503 376.39 197.336C376.835 219.892 376.539 242.466 376.539 267.984L376.502 268.04ZM312.594 540.985C312.594 554.781 312.742 568.559 312.538 582.337C312.427 590.411 317.298 591.281 323.631 591.3C329.964 591.318 334.076 589.596 333.631 582.318C333.483 579.818 333.631 577.3 333.631 574.8C333.631 546.874 333.631 547.022 361.427 548.429C367.576 548.744 369.668 551.17 369.501 557.059C369.261 565.818 369.576 574.596 369.576 583.374C369.576 590.355 373.964 591.355 379.631 591.281C385.427 591.207 390.631 590.652 390.65 583.115C390.705 555.226 390.687 527.337 390.687 499.448C390.687 491.985 385.779 491.04 379.872 491.059C373.946 491.077 369.224 492.04 369.427 499.614C369.631 507.448 369.946 515.337 369.094 523.077C368.816 525.596 365.205 529.448 362.779 529.744C355.353 530.614 347.705 530.596 340.279 529.726C337.853 529.429 334.261 525.633 333.964 523.114C333.094 515.689 333.298 508.096 333.668 500.596C334.057 492.781 329.872 491.04 323.187 491.059C316.557 491.059 312.335 492.763 312.483 500.54C312.761 514.003 312.557 527.485 312.557 540.966L312.594 540.985ZM52.1121 91.336H52.1492C52.1492 104.817 52.3529 118.299 52.0566 131.78C51.9269 138.243 54.5936 140.725 60.8899 140.947C72.1307 141.355 73.2418 140.114 73.2603 124.947C73.2974 97.4286 73.2973 97.5767 100.871 98.5582C106.52 98.7619 108.816 100.614 108.686 106.243C108.501 115.021 108.797 123.799 108.686 132.577C108.594 140.188 113.446 140.947 119.353 140.947C125.353 140.947 129.816 139.929 129.779 132.355C129.631 105.077 129.668 77.7989 129.76 50.5211C129.779 43.7433 126.575 40.984 119.946 40.9655C110.501 40.947 108.797 42.8359 108.649 54.7063C108.297 82.1508 108.297 81.9841 81.1122 80.5952C74.8529 80.2804 72.927 77.7434 73.2048 71.9285C73.5196 65.3544 72.9825 58.7433 73.3529 52.1878C73.7973 44.1322 70.427 40.8544 62.3344 40.91C54.5751 40.9655 51.8158 44.2988 52.0195 51.8174C52.3714 64.9841 52.1121 78.1508 52.1121 91.3174V91.336ZM647.891 91.5026C647.891 77.6878 647.78 63.8915 647.928 50.0766C648.002 42.8914 644.002 41.0025 637.724 40.9655C631.224 40.9285 626.557 42.3359 626.798 50.2433C627.039 57.7618 627.169 65.3174 626.65 72.8174C626.465 75.3359 624.224 79.7434 622.743 79.7989C613.094 80.2248 602.78 81.5026 594.039 78.5211C591.039 77.5026 591.891 65.0581 591.094 57.8359C590.891 55.9841 590.946 54.0581 591.094 52.1878C591.65 44.9655 589.169 40.9285 581.131 40.91C573.224 40.91 569.78 43.9655 569.854 52.1137C570.094 77.8359 569.854 103.577 569.946 129.299C569.983 139.595 572.002 141.077 582.187 140.91C594.465 140.706 590.909 131.595 590.983 125.206C591.354 97.4841 591.169 97.6323 618.632 98.5582C624.576 98.7619 627.187 100.466 626.909 106.725C626.539 115.188 627.095 123.669 626.761 132.132C626.465 139.706 630.835 140.929 636.928 140.91C643.169 140.91 648.15 140.225 647.946 131.966C647.632 118.484 647.854 104.984 647.872 91.4841L647.891 91.5026Z" fill="#4FAFA8"/>
</svg>
