<svg width="63" height="68" viewBox="0 0 63 68" fill="none" xmlns="http://www.w3.org/2000/svg">
<path d="M44.4652 18.2983H18.3124C18.3124 18.2983 0 33.9927 0 52.3051C0 62.7635 7.88093 67.9995 13.0764 67.9995H49.7147C54.9371 67.9995 62.7911 62.7635 62.7911 52.3051C62.7911 34.0062 44.4652 18.3118 44.4652 18.2983ZM40.2279 56.0297C40.2279 56.4345 39.904 56.7584 39.4991 56.7584H23.2919C22.8871 56.7584 22.5632 56.4345 22.5632 56.0297V54.0864C22.5632 53.803 22.7117 53.5601 22.9681 53.4387C25.4646 52.1972 27.0165 49.8221 27.0165 47.2716C27.0165 46.5968 26.9895 45.9896 26.9085 45.2743H23.5618C23.157 45.2743 22.8331 44.9505 22.8331 44.5456V42.0896C22.8331 41.6847 23.157 41.3744 23.5618 41.3744H26.3283C26.1663 40.2543 26.0314 39.0803 26.0314 37.8792C26.0314 32.9806 29.4051 29.553 34.2362 29.553C36.7327 29.553 38.2171 30.2277 38.8649 30.6325C39.1483 30.808 39.2697 31.1453 39.1888 31.4422L38.4465 34.0062C38.3926 34.2221 38.2306 34.3976 38.0282 34.4785C37.8258 34.5595 37.5964 34.5595 37.4075 34.4516C36.9486 34.1817 35.923 33.7498 34.2497 33.7498C31.9016 33.7498 30.7141 35.1533 30.7141 37.8927C30.7141 39.2827 30.8625 40.3758 31.0244 41.3474H35.9905C36.3953 41.3474 36.7057 41.6712 36.7057 42.0626V44.5186C36.7057 44.9235 36.3819 45.2474 35.9905 45.2474H31.4967C31.5777 46.5159 31.5777 47.8114 31.2673 49.0664C30.9435 50.3214 30.3632 51.4414 29.5265 52.4536H39.4856C39.8905 52.4536 40.2144 52.7774 40.2144 53.1823L40.2279 56.0297Z" fill="#4FAFA8"/>
<path d="M44.4787 2.60449H37.2455C35.7476 0.944632 33.6154 0 31.3888 0C29.1622 0 27.03 0.944632 25.5456 2.60449H18.3124C17.4487 2.60449 16.639 3.03632 16.1532 3.75154C15.6674 4.46676 15.573 5.37091 15.8833 6.1806L18.3124 13.0629H44.4787L46.9078 6.1806C47.2181 5.37091 47.1237 4.46676 46.6379 3.75154C46.1386 3.03632 45.3424 2.60449 44.4787 2.60449Z" fill="#4FAFA8"/>
</svg>
