<svg width="589" height="700" viewBox="0 0 589 700" fill="none" xmlns="http://www.w3.org/2000/svg">
<path d="M429.863 0.00105656C426.915 0.0412793 424.1 1.22812 422.017 3.30876L399.384 25.8894C398.333 26.9373 397.499 28.1817 396.93 29.5514C396.361 30.9211 396.068 32.3893 396.068 33.872C396.068 35.3547 396.361 36.8229 396.93 38.1926C397.499 39.5623 398.333 40.8067 399.384 41.8546L546.495 188.629C547.546 189.677 548.793 190.509 550.166 191.077C551.539 191.645 553.01 191.937 554.496 191.937C555.982 191.937 557.454 191.645 558.827 191.077C560.2 190.509 561.447 189.677 562.497 188.629L585.13 166.048C586.181 165 587.015 163.756 587.584 162.386C588.153 161.016 588.446 159.548 588.446 158.065C588.446 156.583 588.153 155.114 587.584 153.745C587.015 152.375 586.181 151.131 585.13 150.083L438.019 3.30876C436.95 2.24144 435.677 1.39879 434.277 0.830644C432.876 0.262503 431.375 -0.0195883 429.863 0.00105656ZM90.53 67.7429C66.5284 67.7704 43.5178 77.2953 26.5461 94.2281C9.57436 111.161 0.0275543 134.119 0 158.065V643.548C0.0176698 658.515 5.98457 672.863 16.5918 683.446C27.199 694.029 41.5804 699.982 56.5813 700H509.231C512.233 700 515.111 698.81 517.233 696.693C519.355 694.576 520.548 691.704 520.548 688.71V299.04C520.579 288.654 518.544 278.364 514.561 268.769C510.577 259.173 504.724 250.462 497.34 243.14L344.748 90.8968C337.406 83.5344 328.674 77.6973 319.057 73.723C309.44 69.7488 299.129 67.7162 288.719 67.7429H90.53ZM409.308 83.664L389.394 103.532L484.676 198.596L504.59 178.727L409.308 83.664ZM90.53 112.904H248.958C260.963 112.904 272.476 117.662 280.965 126.132C289.454 134.601 294.223 146.088 294.223 158.065C294.223 170.043 289.454 181.53 280.965 189.999C272.476 198.468 260.963 203.227 248.958 203.227H90.53C78.525 203.227 67.0117 198.468 58.5228 189.999C50.034 181.53 45.265 170.043 45.265 158.065C45.265 146.088 50.034 134.601 58.5228 126.132C67.0117 117.662 78.525 112.904 90.53 112.904ZM90.53 135.485C84.5275 135.485 78.7708 137.864 74.5264 142.098C70.282 146.333 67.8975 152.077 67.8975 158.065C67.8975 164.054 70.282 169.798 74.5264 174.032C78.7708 178.267 84.5275 180.646 90.53 180.646H248.958C254.96 180.646 260.717 178.267 264.961 174.032C269.206 169.798 271.59 164.054 271.59 158.065C271.59 152.077 269.206 146.333 264.961 142.098C260.717 137.864 254.96 135.485 248.958 135.485H90.53ZM56.5813 248.388H384.753C386.239 248.388 387.71 248.68 389.083 249.247C390.456 249.815 391.703 250.647 392.754 251.695L449.335 308.147C451.457 310.264 452.65 313.135 452.65 316.13V643.548C452.65 646.543 451.458 649.415 449.336 651.532C447.213 653.649 444.335 654.839 441.334 654.839H56.5813C53.58 654.839 50.7017 653.649 48.5795 651.532C46.4573 649.415 45.265 646.543 45.265 643.548V259.678C45.265 256.684 46.4573 253.812 48.5795 251.695C50.7017 249.577 53.58 248.388 56.5813 248.388ZM67.8975 270.968V632.258H430.018V320.804L380.067 270.968H67.8975ZM339.112 304.861C341.478 304.729 343.825 305.341 345.824 306.611C347.822 307.881 349.371 309.745 350.251 311.94C351.559 315.221 381.89 392.929 340.416 448.217C317.444 478.847 279.392 487.299 245.819 494.746C217.149 501.112 190.069 507.123 178.695 525.485L169.169 543.545C162.11 556.982 158.424 571.927 158.428 587.097C158.428 590.091 157.235 592.963 155.113 595.08C152.991 597.198 150.113 598.387 147.111 598.387C144.11 598.387 141.232 597.198 139.109 595.08C136.987 592.963 135.795 590.091 135.795 587.097C135.798 568.262 140.379 549.708 149.145 533.027L157.61 516.974C157.424 495.791 160.443 377.551 249.842 364.444C322.061 353.854 328.459 315.237 328.503 314.851C328.806 312.205 330.037 309.751 331.979 307.923C333.92 306.095 336.447 305.011 339.112 304.861ZM336.57 347.156C323.616 362.783 299.151 380.04 253.135 386.782C211.047 392.955 193.266 432.224 185.746 466.432C205.234 438.373 234.499 418.563 267.833 410.862C269.303 410.471 270.838 410.38 272.345 410.595C273.852 410.809 275.3 411.325 276.602 412.11C277.905 412.896 279.035 413.936 279.925 415.167C280.816 416.399 281.448 417.797 281.784 419.278C282.12 420.759 282.153 422.293 281.882 423.787C281.61 425.281 281.039 426.705 280.203 427.974C279.367 429.243 278.283 430.331 277.015 431.172C275.748 432.013 274.324 432.59 272.828 432.87C243.394 439.718 217.831 457.819 201.637 483.279C214.501 478.957 227.617 475.422 240.912 472.694C272.088 465.776 304.334 458.609 322.292 434.678C342.858 407.267 341.176 371.369 336.57 347.156Z" fill="#4FAFA8"/>
</svg>
