<svg width="700" height="684" viewBox="0 0 700 684" fill="none" xmlns="http://www.w3.org/2000/svg">
<path d="M408.918 220.663H356.495C348.914 220.663 344.74 222.054 344.74 234.224V280.262C344.74 292.224 349.516 293.615 356.495 293.615H408.918C415.897 293.615 420.673 292.224 420.673 280.262V234.224C420.673 222.077 416.5 220.663 408.918 220.663Z" fill="#4FAFA8"/>
<path d="M686.66 233.621C680.887 222.749 673.073 212.41 663.961 203.485C655.034 194.746 644.392 188.765 633.356 183.318C628.07 180.698 622.922 177.986 616.871 176.711C613.578 176.039 607.689 175.83 607.133 171.124C606.53 166.048 604.953 161.481 603.354 156.775C599.319 144.999 595.378 133.246 588.492 122.629C578.638 107.422 566.21 95.2056 550.537 86.0026C542.004 80.9955 533.055 77.6806 523.711 74.5511C514.135 71.3289 504.606 68.9644 494.682 68.8021C473.467 68.4544 453.875 74.3424 435.79 85.3536C429.994 88.8771 425.102 88.2744 422.922 83.5918C416.152 68.9644 405.811 57.026 394.52 45.8294C387.727 39.0837 379.913 33.7288 372.007 28.2812C364.912 23.3899 357.376 19.3564 349.911 15.5315C341.077 11.0111 331.965 6.81531 321.717 4.86808C312.976 3.19903 304.467 -0.139079 295.424 0.0695528C281.049 0.394091 266.697 -1.06633 252.253 2.01678C244.903 3.59311 236.857 4.56673 230.226 7.23258C221.021 10.9416 211.469 14.6042 202.867 20.1446C197.928 23.3204 192.943 26.5658 187.912 29.533C176.737 36.1397 167.068 44.3922 158.675 54.0124C147.523 66.7853 138.411 80.8564 130.783 96.2256C124.314 109.277 122.134 123.371 117.404 136.816C114.043 146.344 113.579 156.427 113.95 166.488C114.089 170.22 112.396 171.75 108.733 171.611C104.676 171.472 100.827 172.562 96.862 173.512C92.3639 174.578 88.1209 176.502 83.6229 177.244C73.5371 178.936 64.9584 184.291 56.4725 189.136C45.5056 195.372 36.1154 204.042 28.1859 214.056C23.9197 219.434 17.961 224.441 16.1757 230.584C13.3702 240.367 6.71594 248.225 4.93064 258.611C3.19171 268.741 0.965888 278.778 0.131202 289.048C-0.471626 296.419 1.12819 303.513 2.38022 310.722C4.16551 321.061 5.18569 331.493 10.588 340.835C13.8803 346.537 16.9408 352.402 20.0709 358.128C23.5256 364.41 28.2091 369.603 32.5448 374.749C39.1064 382.561 47.4532 389.237 56.542 394.268C65.4917 399.205 74.4877 404.004 84.2721 407.527C90.1149 409.614 95.5867 410.703 101.522 410.703C184.597 410.703 267.671 410.703 350.769 410.703V410.796C430.759 410.796 510.75 410.865 590.741 410.703C600.548 410.703 611.005 412.905 619.514 405.348C619.769 405.116 620.233 405.093 620.627 405.024C634.283 403.123 644.694 394.708 654.965 386.734C664.888 379.038 673.653 370.02 680.678 359.241C691.668 342.388 699.018 324.561 699.69 304.324C699.922 297.184 699.296 289.998 699.829 282.881C701.151 264.893 694.613 248.643 686.66 233.644V233.621ZM239.106 220.663H194.659C187.078 220.663 182.904 222.054 182.904 234.224V280.262C182.904 292.224 187.68 293.614 194.659 293.614H239.106C246.085 293.614 250.861 292.224 250.861 280.262V277.272C250.861 273.493 253.064 271.291 256.843 271.291H280.354C284.133 271.291 286.336 272.682 286.336 275.069V279.057C286.336 307.546 270.987 327.482 239.106 327.482H194.659C162.756 327.482 147.407 307.546 147.407 279.057V235.406C147.407 206.708 162.756 186.772 194.659 186.772H239.106C271.01 186.772 286.336 206.708 286.336 235.406C286.336 238.999 284.133 240.993 280.354 240.993H256.843C253.064 240.993 250.861 239.787 250.861 237.608V234.224C250.861 222.077 246.665 220.663 239.106 220.663ZM456.148 279.057C456.148 307.546 440.799 327.482 408.918 327.482H356.495C324.592 327.482 309.243 307.546 309.243 279.057V235.406C309.243 206.708 324.592 186.772 356.495 186.772H408.918C440.822 186.772 456.148 206.708 456.148 235.406V279.057ZM548.937 327.042C551.139 327.042 552.415 328.317 552.415 330.519V343.292C552.415 345.494 551.139 346.769 548.937 346.769H479.797C477.594 346.769 476.319 345.494 476.319 343.292V329.824C476.319 327.969 476.899 326.694 478.638 325.651L524.777 298.343C530.481 294.982 532.22 293.452 532.22 290.091C532.22 285.57 530.133 284.504 524.545 284.504H503.864C499.458 284.504 497.001 285.315 497.001 292.409V292.873C497.001 295.075 495.726 296.35 493.523 296.35H479.82C477.618 296.35 476.342 295.77 476.342 294.727V293.104C476.342 276.367 482.973 264.754 503.887 264.754H525.148C544.787 264.754 552.693 274.165 552.693 288.445C552.693 302.725 547.105 306.457 530.736 315.753L510.866 327.019H548.983L548.937 327.042Z" fill="#4FAFA8"/>
<path d="M207.133 593.627C202.682 593.557 198.23 593.279 193.802 593.627C188.376 594.044 186.776 591.726 186.846 586.557C187.055 568.406 186.939 550.232 186.939 532.081C186.939 513.721 186.962 495.385 186.916 477.025C186.916 472.389 186.313 467.451 180.284 467.405C157.864 467.196 135.466 467.312 113.046 467.289C110.055 467.289 108.988 468.796 107.875 471.554C104.444 479.923 106.229 488.755 106.786 496.891C107.273 503.939 106.994 511.194 107.389 518.195C108.687 541.492 107.829 564.905 107.945 588.295C107.945 592.445 106.044 593.697 102.265 593.581C97.6274 593.442 92.9902 593.418 88.3531 593.65C84.0869 593.859 83.2986 595.945 84.968 599.84C86.962 604.476 90.7644 607.768 93.338 612.01C97.7201 619.173 102.149 626.475 107.644 632.734C112.884 638.691 117.034 645.391 121.671 651.696C128.511 661.015 135.837 670.033 141.935 679.931C145.135 685.147 147.523 684.961 151.14 680.047C155.035 674.715 157.678 668.248 162.246 663.658C169.225 656.68 174.233 648.242 180.238 640.662C190.648 627.541 199.668 613.215 209.823 599.816C210.843 598.472 211.539 597.22 210.982 595.621C210.356 593.836 208.71 593.673 207.157 593.627H207.133Z" fill="#4FAFA8"/>
<path d="M613.347 593.627C609.104 593.418 604.837 593.302 600.618 593.627C595.563 593.998 593.847 592.004 593.917 586.951C594.149 568.429 594.01 549.884 594.01 531.362C594.01 513.211 594.01 495.06 594.01 476.932C594.01 468.865 592.503 467.312 584.643 467.312C564.17 467.266 543.72 467.266 523.247 467.312C516.245 467.312 515.225 468.378 515.086 475.356C515.039 477.095 515.086 478.833 515.086 480.572C515.086 514.741 515.086 548.91 515.086 583.08C515.086 590.096 511.484 593.604 504.281 593.604C501.197 593.604 498.09 593.511 495.007 593.673C490.787 593.882 489.999 596.478 491.923 599.585C495.331 605.055 498.879 610.48 502.913 615.464C508.084 621.862 513.045 628.515 517.659 635.191C524.035 644.417 531.246 653.041 537.274 662.522C541.262 668.781 546.827 674.066 550.838 680.325C553.435 684.382 554.919 683.57 557.794 681.044C561.921 677.404 563.613 672.165 567.23 668.132C574.905 659.624 580.632 649.587 587.703 640.523C592.34 634.612 596.862 628.469 601.151 622.233C606.321 614.722 611.84 607.466 616.824 599.84C619.468 595.806 618.216 593.882 613.347 593.65V593.627Z" fill="#4FAFA8"/>
<path d="M408.988 593.649C404.93 593.51 400.85 593.302 396.839 593.626C391.529 594.044 389.744 591.98 389.813 586.672C390.068 568.15 389.906 549.605 389.906 531.083C389.906 512.932 389.906 494.781 389.906 476.653C389.906 468.076 389.118 467.311 380.725 467.311C360.831 467.288 340.938 467.288 321.068 467.311C312.327 467.311 310.936 468.633 310.912 477.372C310.866 510.962 310.912 544.551 310.889 578.141C310.889 588.418 305.657 593.572 295.193 593.603C294.613 593.603 294.033 593.557 293.454 593.603C291.228 593.812 288.469 592.908 287.24 595.527C286.057 598.077 288.167 599.885 289.489 601.693C296.027 610.595 303.331 619.01 309.034 628.398C315.41 638.853 323.433 648.056 330.504 657.908C335.559 664.932 340.776 671.909 345.761 679.003C350.143 685.239 352.253 685.424 355.985 678.794C359.742 672.141 364.634 666.276 369.317 660.481C375.322 653.017 379.589 644.44 385.733 637.068C388.051 634.286 390.741 631.481 392.735 628.143C396.839 621.282 401.545 614.698 406.785 608.648C409.266 605.796 411.028 602.783 412.535 599.537C414.089 596.199 413.045 593.788 408.988 593.649Z" fill="#4FAFA8"/>
</svg>
