<svg width="504" height="700" viewBox="0 0 504 700" fill="none" xmlns="http://www.w3.org/2000/svg">
<path d="M419.69 56H335.752V28C335.752 12.6 323.161 0 307.772 0H195.855C180.467 0 167.876 12.6 167.876 28V56H83.9379C38.0519 56 0 94.08 0 140V616C0 661.92 38.0519 700 83.9379 700H419.69C465.576 700 503.628 661.92 503.628 616V140C503.628 94.08 465.576 56 419.69 56ZM363.171 320.6L297.7 537.32C296.301 540.96 293.223 543.48 289.306 543.48C287.068 543.48 285.109 542.64 283.71 541.24L283.43 541.52L242.301 507.36L156.125 612.36C154.446 614.32 151.928 616 149.13 616C143.814 616 139.897 611.8 139.897 606.48C139.897 605.36 140.176 604.52 140.456 603.12L225.233 386.68C226.632 383.04 229.71 380.52 233.347 380.52C235.866 380.52 238.104 381.64 239.783 383.04L276.995 418.6L346.664 312.2C348.342 309.68 351.14 308 354.218 308C359.534 308 363.731 312.2 363.731 317.52C363.731 318.64 363.451 319.48 363.171 320.6ZM447.669 252H55.9586V140C55.9586 124.04 67.9897 112 83.9379 112H419.69C435.638 112 447.669 124.04 447.669 140V252Z" fill="#4FAFA8"/>
</svg>
