<svg width="701" height="701" viewBox="0 0 701 701" fill="none" xmlns="http://www.w3.org/2000/svg">
<path fill-rule="evenodd" clip-rule="evenodd" d="M547.219 146.828L546.715 144.812C544.362 144.644 546.211 144.476 545.371 145.652C545.539 145.652 545.707 145.652 545.875 145.82C545.875 145.988 546.211 145.988 546.211 145.988L547.219 146.828Z" fill="#4FAFA8"/>
<path fill-rule="evenodd" clip-rule="evenodd" d="M547.221 114.904C545.877 114.904 546.381 115.072 545.541 114.063L546.213 116.08C548.061 115.576 546.717 116.248 547.389 114.904H547.221Z" fill="#4FAFA8"/>
<path fill-rule="evenodd" clip-rule="evenodd" d="M350.798 0.813965C544.029 0.813965 700.798 157.583 700.798 350.814C700.798 544.045 544.029 700.814 350.798 700.814C157.567 700.814 0.79834 544.045 0.79834 350.814C0.79834 157.583 157.567 0.813965 350.798 0.813965ZM334.332 96.0852L195.71 379.715H334.836L224.274 590.252H241.413L508.744 273.69H365.417L487.404 92.8927L334.5 96.0852H334.332Z" fill="#4FAFA8"/>
</svg>
