<svg width="646" height="700" viewBox="0 0 646 700" fill="none" xmlns="http://www.w3.org/2000/svg">
<path d="M329.912 0C235.696 0 159.326 76.386 159.326 170.602C159.326 264.817 235.696 341.203 329.912 341.203C424.128 341.203 500.514 264.817 500.514 170.602C500.514 76.386 424.144 0 329.912 0ZM396.998 163.41L308.668 279.405C307.708 280.648 306.512 281.64 305.143 282.317C303.773 282.993 302.263 283.355 300.689 283.355C294.206 283.355 289.422 277.312 290.932 271.002L307.944 199.416C309.454 193.121 304.67 187.062 298.187 187.062H270.805C262.638 187.062 257.901 177.809 262.669 171.184L341.274 62.0026C343.76 58.5563 348.167 57.0456 352.242 58.2416L354.556 58.934C359.481 60.3817 362.519 65.3073 361.59 70.3588L349.677 135.477C348.56 141.63 353.297 147.311 359.544 147.311H389.019C397.328 147.311 402.033 156.816 396.998 163.41Z" fill="#4FAFA8"/>
<path d="M240.906 573.351H111.534C103.744 573.351 96.4268 569.653 91.8002 563.39L4.80766 445.585C0.88922 440.282 -0.731661 433.625 0.306962 427.11L41.4112 171.168C42.3712 165.22 45.4084 160.058 49.7202 156.376C54.0321 152.709 59.6186 150.521 65.6458 150.521C78.5971 150.521 89.3295 160.577 90.1478 173.513L98.0634 298.809C84.2938 303.907 68.683 315.977 64.7488 335.239C60.9405 353.745 69.6744 368.459 73.6086 373.904L73.9076 374.329L144.88 466.987C148.295 471.424 153.441 473.769 158.634 473.769C162.316 473.769 166.015 472.605 169.146 470.197C176.747 464.39 178.179 453.516 172.372 445.931L101.588 353.525C100.691 352.235 97.607 347.325 98.6614 342.195C100.188 334.735 110.118 331.258 110.543 331.1C113.422 330.109 116.46 329.936 119.45 330.25L241.047 416.377C246.665 420.359 250.348 426.528 251.213 433.373L265.266 545.765C267.091 560.416 255.667 573.351 240.906 573.351Z" fill="#4FAFA8"/>
<path d="M266.211 601.614H102.817C92.7001 601.614 84.499 609.815 84.499 619.932V681.683C84.499 691.799 92.7001 700 102.817 700H266.211C276.327 700 284.528 691.799 284.528 681.683V619.932C284.528 609.815 276.327 601.614 266.211 601.614Z" fill="#4FAFA8"/>
<path d="M404.505 573.351H533.876C541.666 573.351 548.983 569.653 553.61 563.39L640.602 445.585C644.521 440.282 646.142 433.625 645.103 427.11L603.999 171.168C603.039 165.22 600.002 160.058 595.69 156.376C591.378 152.709 585.791 150.521 579.764 150.521C566.813 150.521 556.081 160.577 555.262 173.513L547.347 298.809C561.116 303.907 576.727 315.977 580.661 335.239C584.47 353.745 575.736 368.459 571.801 373.904L571.503 374.329L500.53 466.987C497.115 471.424 491.969 473.769 486.776 473.769C483.094 473.769 479.396 472.605 476.264 470.197C468.663 464.39 467.231 453.516 473.038 445.931L543.822 353.525C544.719 352.235 547.803 347.325 546.749 342.195C545.222 334.735 535.292 331.258 534.867 331.1C531.988 330.109 528.95 329.936 525.96 330.25L404.363 416.377C398.745 420.359 395.063 426.528 394.197 433.373L380.144 545.765C378.319 560.416 389.743 573.351 404.505 573.351Z" fill="#4FAFA8"/>
<path d="M379.184 699.985H542.578C552.694 699.985 560.896 691.784 560.896 681.667V619.916C560.896 609.8 552.694 601.599 542.578 601.599H379.184C369.067 601.599 360.866 609.8 360.866 619.916V681.667C360.866 691.784 369.067 699.985 379.184 699.985Z" fill="#4FAFA8"/>
</svg>
