<svg width="581" height="701" viewBox="0 0 581 701" fill="none" xmlns="http://www.w3.org/2000/svg">
<path d="M187.964 669.679C161.241 661.145 134.63 652.208 107.728 644.278C98.5893 641.59 93.9526 637.133 91.5558 627.77C73.905 559.137 53.4541 491.334 27.7618 425.232C19.1603 403.124 10.6261 380.971 1.39746 359.109C-1.53689 352.165 0.187878 348.805 6.21337 345.445C61.0252 314.735 115.747 283.846 170.514 253.024C207.227 232.349 243.985 211.787 280.608 190.977C287.53 187.057 293.533 187.371 300.343 191.246C354.415 221.911 408.6 252.375 462.74 282.905C499.721 303.759 536.681 324.681 573.752 345.378C580.248 349.007 581.659 353.016 578.568 360.05C562.418 396.763 548.082 434.259 535.158 472.204C523.532 506.341 513.273 540.949 502.835 575.467C497.123 594.327 492.15 613.434 487.11 632.496C485.654 637.984 482.384 641.12 477.21 642.755C435.793 655.814 394.376 668.873 352.959 681.909C334.793 687.621 316.47 692.975 298.483 699.179C292.346 701.285 287.149 701.307 281.079 699.292C254.11 690.399 227.029 681.865 199.948 673.308C196.453 672.21 192.78 671.673 189.196 670.889C188.837 670.486 188.434 670.082 188.009 669.702L187.964 669.679Z" fill="#4FAFA8"/>
<path d="M287.889 181.749C239.708 181.749 191.549 181.727 143.367 181.749C130.42 181.749 130.106 182.264 129.143 195.189C128.068 209.524 126.679 223.838 125.514 238.151C125.223 241.646 124.574 244.916 121.348 246.797C111.828 252.375 102.51 258.378 92.5871 263.082C86.0016 266.195 85.4416 260.416 85.7776 255.914C87.6144 231.275 89.7199 206.657 91.6239 182.018C92.3407 172.7 92.8111 163.337 93.2815 153.996C93.6622 146.47 97.1566 143.468 104.907 144.006C115.569 144.745 126.321 144.14 136.983 144.767C146.01 145.305 149.84 142.035 149.415 132.739C148.9 121.046 149.661 109.309 149.213 97.6161C148.855 88.2307 152.372 84.4451 162.071 84.6243C188.838 85.0499 215.606 84.4451 242.351 84.9155C251.848 85.0947 255.141 81.7124 255.768 72.2822C257.157 51.2937 259.8 30.4173 261.771 9.47368C262.286 3.87378 264.773 0.849838 270.574 0.849838C283.297 0.849838 295.998 0.894637 308.721 0.782639C315.62 0.71544 317.994 4.41137 318.33 10.7953C319.428 32.1421 324.221 53.1529 324.602 74.5893C324.737 82.1156 328.567 84.9379 336.138 84.8707C363.577 84.5795 391.017 85.0275 418.434 84.6019C427.506 84.4675 431.224 87.5139 430.821 96.7425C430.328 108.435 431.224 120.173 430.575 131.843C430.015 141.833 434.584 144.924 443.678 144.7C454.385 144.431 465.092 144.902 475.799 144.61C483.55 144.409 486.618 148.038 486.82 155.429C487.716 188.2 491.726 220.724 494.503 253.338C494.817 256.9 495.959 261.111 492.308 263.552C488.791 265.904 486.17 262.276 483.258 260.999C465.092 253.092 449.681 243.751 453.086 219.448C454.341 210.443 451.294 200.901 450.757 191.56C450.398 185.288 447.262 182.466 441.438 182.04C437.765 181.771 434.091 181.704 430.418 181.704C382.908 181.704 335.399 181.704 287.889 181.704V181.749ZM290.824 123.129C260.046 123.129 229.269 123.241 198.492 123.04C191.145 122.995 187.337 125.1 187.36 133.254C187.382 141.318 190.429 144.767 198.604 144.745C259.822 144.61 321.041 144.543 382.259 144.812C393.302 144.857 392.092 137.667 392.764 130.656C393.638 121.539 387.187 123.174 382.147 123.174C351.706 123.062 321.265 123.129 290.824 123.129Z" fill="#4FAFA8"/>
</svg>
