<svg width="701" height="333" viewBox="0 0 701 333" fill="none" xmlns="http://www.w3.org/2000/svg">
<path d="M348.149 1.74839C434.34 1.47667 505.242 68.1914 511.173 154.285C517.823 250.81 444.649 324.803 359.953 330.422C264.773 336.739 190.551 262.523 185.716 175.983C180.494 82.4077 253.308 1.89395 348.149 1.74839ZM474.984 165.619C475.091 95.8962 418.236 38.4488 348.945 38.4197C279.858 38.3906 223.187 93.7711 222.119 163.931C220.993 237.904 280.023 293.964 348.197 294.148C418.294 294.333 474.868 236.934 474.975 165.619H474.984Z" fill="#4FAFA8"/>
<path d="M390.997 0.942725C391.968 -0.386719 393.366 0.0790717 394.56 0.0790717C438.32 -0.0761917 480.916 6.30902 521.502 23.3298C550.779 35.6053 576.688 53.0045 598.733 75.8961C602.063 79.3507 604.5 79.9524 607.79 76.4396C608.781 75.3818 609.936 74.4697 611.11 73.606C614.76 70.9083 617.614 67.706 623.176 67.5701C632.893 67.3275 639.038 71.4614 644.406 79.0014C650.871 88.0649 658.249 96.4782 665.161 105.231C667.024 107.599 668.655 109.326 671.8 106.881C673.752 105.367 675.907 106.173 677.421 107.939C679.624 110.51 681.75 113.169 683.701 115.935C685.711 118.788 683.847 120.767 681.76 122.514C672.955 129.87 664.17 137.254 655.308 144.542C639.824 157.264 624.312 169.947 608.722 182.543C606.48 184.357 604.15 187.899 600.85 185.764C596.656 183.067 593.462 179.078 591.88 174.158C591.647 173.44 592.162 172.004 592.802 171.558C596.85 168.685 594.608 166.386 592.472 163.746C583.823 153.072 575.329 142.281 566.67 131.616C564.816 129.326 563.923 126.958 564.282 124.047C564.709 120.525 565.069 116.983 565.389 113.441C565.69 110.093 568.214 108.434 570.602 106.842C574.096 104.513 573.98 102.621 571.009 99.7194C544.508 73.8195 513.377 56.0806 477.479 47.0366C469.054 44.9114 462.093 41.3694 455.657 35.615C438.136 19.9334 417.556 9.67629 395.103 2.98056C393.696 2.56329 391.783 2.86411 391.016 0.952428L390.997 0.942725Z" fill="#4FAFA8"/>
<path d="M306.631 331.149C301.942 332.964 297.273 332.479 292.652 332.382C261.628 331.732 231.108 327.549 201.345 318.573C162.516 306.86 128.511 286.938 99.8941 258.146C96.2053 254.43 93.5552 253.324 89.779 257.545C83.0616 265.085 74.8686 261.009 67.161 260C66.0253 259.854 64.9769 258.195 64.0838 257.089C55.3569 246.269 46.6204 235.449 38.01 224.532C36.0006 221.99 34.7289 221.077 30.9916 222.562C24.1479 225.279 23.1966 217.564 19.7894 214.352C17.1781 211.897 18.1877 209.141 20.9154 206.919C46.3583 186.192 71.7623 165.435 97.1954 144.707C97.9235 144.105 98.8651 143.339 99.6999 143.358C105.398 143.504 106.573 149.084 109.834 152.15C111.892 154.081 111.688 156.73 109.611 158.623C107.068 160.942 108.126 162.689 109.815 164.785C118.027 174.983 125.997 185.386 134.433 195.401C137.723 199.311 138.529 203.28 138.617 208.22C138.762 216.458 134.86 221.64 128.511 226.075C123.075 229.869 123.269 230.199 127.851 234.576C155.886 261.407 189.114 278.535 226.759 287.375C229.623 288.044 232.273 288.86 234.534 290.975C254.531 309.607 277.645 322.755 304 330.14C304.893 330.392 305.747 330.819 306.621 331.159L306.631 331.149Z" fill="#4FAFA8"/>
<path d="M8.47077 156.196C10.9558 156.032 12.6934 157.215 14.0525 158.875C20.7602 167.113 27.4 175.41 34.0592 183.698C34.8746 184.716 35.8454 185.978 34.7096 187.142C32.011 189.898 29.2347 192.615 25.876 194.585C24.4781 195.401 23.4103 194.527 22.5561 193.46C15.8192 185.037 9.02408 176.662 2.43282 168.123C0.433117 165.532 0.306922 162.397 2.07365 159.476C3.53946 157.031 5.86921 156.109 8.48047 156.196H8.47077Z" fill="#4FAFA8"/>
<path d="M49.6979 124.261C49.7076 120.787 50.8045 118.341 53.6487 117.138C56.5124 115.935 59.677 115.915 61.7446 118.351C68.9377 126.832 75.8688 135.537 82.8969 144.154C84.1491 145.687 83.9744 147.094 82.4212 148.336C82.1688 148.54 81.9261 148.744 81.6932 148.967C76.3088 154.078 71.3193 153.748 66.7245 147.977C61.9873 142.058 57.1725 136.206 52.3771 130.335C50.8045 128.414 49.6008 126.366 49.6979 124.251V124.261Z" fill="#4FAFA8"/>
<path d="M700.835 165.124C700.815 168.346 699.388 170.762 696.379 171.936C693.03 173.246 689.943 172.499 687.643 169.724C682.808 163.902 678.091 157.982 673.334 152.092C671.509 149.841 669.723 147.55 667.869 145.328C666.335 143.484 666.655 142.058 668.306 140.331C676.052 132.208 676.838 132.228 683.721 140.961C688.312 146.784 693.001 152.519 697.699 158.244C699.369 160.282 700.815 162.359 700.835 165.124Z" fill="#4FAFA8"/>
<path d="M652.24 204.784C652.182 207.763 651.066 210.218 648.27 211.461C645.212 212.829 642.018 212.693 639.815 210.034C632.699 201.475 625.788 192.742 618.818 184.066C617.896 182.921 617.76 181.631 618.973 180.621C621.565 178.438 624.225 176.332 626.885 174.236C628.331 173.101 629.603 173.547 630.651 174.867C637.407 183.309 644.173 191.742 650.881 200.233C651.891 201.514 652.318 203.115 652.25 204.794L652.24 204.784Z" fill="#4FAFA8"/>
<path d="M349.042 264.473C297.311 264.968 251.211 223.765 251.114 166.279C251.017 108.327 298.544 67.2693 348.857 67.8419C403.043 68.4629 446.212 112.111 446.134 167.307C446.057 220.311 401.937 264.454 349.042 264.473ZM348.12 225.483C362.457 225.57 375.339 220.417 382.755 211.092C392.084 199.36 395.122 183.338 384.619 165.939C373.436 147.424 359.924 130.364 350.275 110.889C349.168 108.657 348.187 108.773 347.032 110.908C345.11 114.46 343.237 118.05 341.072 121.447C331.782 136.012 322.269 150.442 313.066 165.066C306.194 175.983 303.796 187.754 308.29 200.223C313.969 215.963 328.977 225.357 348.12 225.473V225.483Z" fill="#4FAFA8"/>
<path d="M381.241 187.977C381.552 192.489 380.62 196.856 377.95 200.728C375.019 204.978 371.145 205.027 368.126 200.941C363.583 194.799 363.477 181.165 367.913 175.11C370.932 170.985 375.446 171.014 378.222 175.342C380.639 179.117 381.455 183.387 381.241 187.987V187.977Z" fill="#4FAFA8"/>
</svg>
