<svg width="700" height="634" viewBox="0 0 700 634" fill="none" xmlns="http://www.w3.org/2000/svg">
<path d="M80.4712 370.25C77.549 355.8 75.0871 342.018 71.9118 328.396C67.3789 308.93 66.1595 289.257 66.9878 269.423C67.402 259.921 68.3223 250.395 69.7259 240.961C71.2215 230.906 73.1083 220.851 75.6623 211.026C77.7561 203.065 82.1279 195.656 83.6695 187.649C85.7634 176.696 91.5847 167.561 96.0025 157.806C105.873 135.97 119.265 116.274 135.164 98.3495C141.883 90.7795 149.384 83.8537 155.827 76.0536C160.244 70.6924 165.514 68.9437 171.956 68.9437C290.822 68.9437 409.665 68.8977 528.531 69.1278C532.396 69.1278 537.021 71.0375 539.989 73.5686C552.483 84.1758 563.574 96.1867 572.962 109.67C581.153 121.451 589.643 133.071 596.914 145.404C602.322 154.561 605.704 164.892 610.49 174.418C615.161 183.737 616.771 193.953 620.131 203.571C624.986 217.446 626.182 231.757 628.966 245.908C632.694 264.799 632.05 283.597 631.336 302.442C630.945 312.543 628.184 322.529 626.435 332.561C625.262 339.303 624.203 346.067 622.685 352.717C621.557 357.595 620.039 362.427 618.106 367.052C617.508 368.524 615.184 369.468 613.435 370.181C612.285 370.664 610.789 370.273 609.454 370.273C436.724 370.273 263.993 370.273 91.2626 370.273C88.2254 370.273 85.1881 370.273 80.4022 370.273L80.4712 370.25ZM376.992 249.797C376.44 249.912 375.887 250.05 375.358 250.165C373.241 247.864 370.687 245.816 369.077 243.193C365.119 236.796 361.852 229.986 357.848 223.612C353.131 216.065 347.816 208.886 343.007 201.385C340.752 197.888 339.211 193.93 337.048 190.364C332.561 183.001 327.775 175.845 323.288 168.482C320.366 163.673 317.766 159.232 310.702 160.221C305.249 160.981 299.612 160.544 294.043 160.314C289.672 160.129 288.107 161.602 288.13 166.25C288.314 208.61 288.291 250.947 288.176 293.307C288.176 298.346 290.661 300.233 295.033 300.44C299.243 300.647 303.5 300.141 307.665 300.509C313.417 301.038 314.89 298.53 314.844 293.146C314.637 268.043 314.752 242.94 314.752 217.837C314.752 215.835 314.752 213.81 314.752 209.991C317.513 212.199 319.238 213.005 320.113 214.362C326.44 224.164 332.63 234.058 338.819 243.929C343.72 251.752 348.552 259.622 353.476 267.422C358.722 275.728 364.383 283.781 369.238 292.295C372.919 298.737 377.728 301.475 385.045 300.509C388.427 300.072 391.925 300.486 395.376 300.417C401.934 300.302 403.775 298.438 403.775 291.835C403.775 254.859 403.821 217.86 403.821 180.884C403.821 175.523 404.028 170.138 403.613 164.8C403.498 163.282 401.658 160.728 400.507 160.682C392.914 160.314 385.298 160.498 376.923 160.498V249.797H376.992ZM532.719 223.704C527.725 223.704 522.755 223.681 517.762 223.704C499.401 223.796 500.69 221.104 500.621 241.72C500.621 246.391 502.76 247.703 506.948 247.611C513.46 247.473 519.994 247.289 526.483 247.703C529.382 247.887 534.467 249.198 534.651 250.533C535.319 255.365 535.848 261.37 533.524 265.144C531.062 269.147 525.609 272.622 520.869 273.657C511.504 275.682 501.702 276.694 492.13 276.51C486.884 276.418 481.086 273.887 476.714 270.804C472.411 267.79 467.372 264.799 465.462 259.023C463.369 252.673 459.434 246.621 458.744 240.179C457.317 226.672 456.857 212.867 464.358 200.511C466.544 196.921 468.914 193.263 471.905 190.41C480.096 182.586 490.289 180.194 501.334 180.838C505.706 181.091 510.423 180.7 514.311 182.264C522.709 185.578 528.6 192.02 532.834 200.051C533.478 201.27 535.641 202.628 536.906 202.467C543.832 201.546 550.781 200.488 557.523 198.716C558.926 198.348 560.813 194.229 560.215 192.734C557.891 186.958 555.383 180.999 551.632 176.121C541.508 162.891 526.483 159.117 510.975 157.852C500.229 156.977 489.553 158.036 478.67 159.899C463.714 162.476 452.83 170.576 443.88 181.045C432.904 193.861 429.568 210.359 428.855 226.879C428.487 235.531 429.522 244.573 431.892 252.88C434.078 260.519 438.288 267.79 442.66 274.532C448.689 283.85 457.432 290.684 467.74 294.55C474.804 297.196 481.201 301.959 489.599 301.268C498.159 300.555 506.833 301.153 515.462 301.038C518.108 300.992 521.122 301.222 523.354 300.118C535.135 294.297 548.549 292.088 559.179 283.574C561.48 281.733 563.137 280.537 563.114 277.5C563.045 261.209 563.022 244.919 563.114 228.605C563.114 224.901 561.733 223.589 558.006 223.681C549.584 223.888 541.14 223.75 532.696 223.727L532.719 223.704ZM165.652 161.004C165.444 162.407 165.283 162.983 165.283 163.558C165.26 207.068 165.283 250.556 165.191 294.066C165.191 299.059 168.482 300.348 172.255 300.371C202.144 300.509 232.033 300.44 261.945 300.463C265.857 300.463 267.445 298.346 267.445 294.688C267.445 290.661 267.491 286.634 267.445 282.608C267.399 275.659 266.731 274.969 259.898 274.969C240.547 274.969 221.196 274.969 201.822 274.946C199.613 274.946 197.404 274.693 194.528 274.509V161.004H165.629H165.652Z" fill="#4FAFA8"/>
<path d="M634.466 633.132H580.739V445.584C571.098 456.605 562.838 466.729 553.818 476.117C546.777 483.457 538.862 489.969 531.246 496.756C525.586 501.818 520.179 507.318 513.943 511.574C506.281 516.82 497.883 521.008 489.76 525.564C482.075 529.89 474.344 534.123 466.659 538.403C463.162 540.359 461.942 543.189 461.965 547.331C462.172 573.584 461.896 599.861 462.195 626.114C462.264 631.982 460.493 633.661 454.671 633.477C441.464 633.063 428.211 633.362 414.98 633.339C412.725 633.339 410.494 633.086 407.617 632.925V557.501C368.41 566.451 329.869 566.612 290.523 557.225V633.316C279.962 633.316 270.252 633.316 260.519 633.316C254.376 633.316 248.232 633.017 242.112 633.431C237.372 633.754 236.267 631.89 236.313 627.518C236.451 601.84 236.382 576.138 236.382 550.437C236.382 539.945 235.14 538.771 225.476 534.33C215.352 529.683 205.113 524.966 195.84 518.914C186.015 512.518 177.294 504.464 168.045 497.193C150.765 483.641 136.177 467.558 122.924 450.163C122.509 449.61 121.865 449.219 120.232 447.793V632.327C117.355 632.718 115.331 633.224 113.283 633.247C99.086 633.316 84.9123 633.132 70.7155 633.385C65.4234 633.477 63.8127 631.66 63.8127 626.368C63.9738 566.935 63.9048 507.502 63.9048 448.069C63.9048 442.163 60.9749 439.21 55.1152 439.21C38.6176 439.21 22.1429 439.095 5.6453 439.279C1.50363 439.325 -0.13003 438.244 0.00802516 433.803C0.307146 423.679 0.100062 413.532 0.100062 402.487H7.27896C235.232 402.487 463.185 402.487 691.138 402.487C696.967 402.487 699.881 405.432 699.881 411.323C699.881 418.41 699.582 425.52 699.973 432.606C700.249 437.691 698.409 439.325 693.439 439.279C676.964 439.072 660.466 439.21 643.969 439.21C637.587 439.21 634.404 442.5 634.42 449.081C634.42 507.755 634.42 566.405 634.42 625.079V633.063L634.466 633.132Z" fill="#4FAFA8"/>
<path d="M349.496 55.507C297.173 55.507 244.85 55.507 192.527 55.507C183.967 55.507 183.323 54.8628 183.3 46.3954C183.3 33.5562 183.3 20.717 183.3 7.87784C183.3 1.43524 184.519 0.169728 191.468 0.123709C205.458 0.0316724 219.447 0.1007 233.437 0.1007C245.517 0.1007 257.597 0.1007 269.654 0.1007C316.293 0.1007 362.91 0.0316724 409.55 0.169728C419.03 0.192737 428.533 1.29718 438.012 1.27417C448.505 1.27417 458.997 0.330793 469.489 0.169728C482.328 -0.0373555 495.167 0.353802 508.007 0.00866308C513.667 -0.152402 515.324 1.91843 515.209 7.39464C514.909 21.1772 514.979 34.9828 515.163 48.7883C515.232 53.8734 513.621 55.6911 508.191 55.6911C455.292 55.484 402.394 55.5761 349.496 55.5761V55.507Z" fill="#4FAFA8"/>
</svg>
