<svg width="495" height="700" viewBox="0 0 495 700" fill="none" xmlns="http://www.w3.org/2000/svg">
<path d="M321.096 103.787C321.096 132.608 321.188 161.428 321.003 190.248C320.976 195.181 322.326 198.805 326.293 201.821C349.453 219.346 370.813 239.027 391.314 259.461C412.251 280.346 431.853 302.539 448.201 327.458C460.673 346.477 471.889 366.039 479.785 387.413C486.676 406.062 490.565 425.253 493.197 445.027C496.609 470.673 494.003 495.697 488.607 520.39C481.187 554.342 466.44 585.067 443.505 611.679C412.754 647.35 374.451 670.761 329.838 685.111C303.147 693.695 275.835 697.663 248.152 699.845C239.925 700.493 231.461 698.959 223.168 697.914C187.47 693.404 153.333 683.736 121.206 667.123C98.6682 655.471 78.5245 640.658 60.9202 622.537C35.076 595.939 17.604 564.566 7.92229 528.67C2.81692 509.77 0.330368 490.472 0.0261624 471.175C-0.436759 440.98 5.25057 411.683 16.5326 383.352C34.5866 338.052 63.6977 300.688 97.1207 266.048C119.143 243.219 143.069 222.573 167.538 202.495C171.889 198.924 173.741 195.142 173.728 189.481C173.569 132.25 173.635 75.02 173.622 17.7897C173.622 4.68237 178.688 -0.0394313 191.861 0.000247732C228.432 0.132511 265.003 0.0663794 301.573 0.0267004C305.488 0.0267004 309.443 0.0267005 313.027 1.58741C318.993 4.17977 321.069 9.19255 321.056 15.4883C320.99 44.9169 321.029 74.3587 321.029 103.787H321.069H321.096ZM246.803 527.612C308.901 527.612 370.998 527.612 433.096 527.612C442.381 527.612 443.347 526.66 443.36 517.454C443.399 497.02 443.386 476.585 443.386 456.15C443.386 439.802 443.28 423.455 443.426 407.107C443.479 401.618 441.521 398.854 435.715 398.457C430.623 398.1 425.57 397.597 420.452 397.597C375.31 397.624 330.169 397.624 285.027 397.61C211.7 397.61 138.36 397.584 65.0336 397.571C52.4025 397.571 51.2121 398.721 51.2121 411.009C51.2121 446.151 51.2121 481.307 51.2385 516.449C51.2385 526.898 51.9528 527.612 62.3619 527.612C123.851 527.612 185.327 527.612 246.816 527.612H246.803ZM247.861 270.161C247.861 270.161 247.861 270.069 247.861 270.016C290.146 270.016 332.43 270.016 374.715 269.976C376.408 269.976 378.776 271.537 379.701 269.394C380.574 267.397 378.18 266.352 376.911 265.135C357.375 246.566 337.364 228.525 316.109 211.939C309.668 206.913 307.195 201.265 307.234 193.144C307.499 136.337 307.38 79.5302 307.367 22.7231C307.367 14.1789 306.824 13.6498 298.399 13.6498C265.915 13.6366 233.445 13.6498 200.961 13.6498C191.79 13.6498 187.205 18.1556 187.205 27.1671C187.205 83.3658 187.166 139.551 187.245 195.75C187.245 201.411 185.896 206 181.095 209.598C174.733 214.359 168.649 219.531 162.591 224.702C147.368 237.691 132.237 250.811 118.084 264.977C116.881 266.193 114.804 267.291 115.836 269.5C116.458 270.809 117.992 270.188 119.169 270.188C162.062 270.188 204.955 270.188 247.861 270.188V270.161Z" fill="#4FAFA8"/>
<path d="M301.813 421.921C323.53 421.855 334.64 431.775 337.352 452.858C338.278 460.013 338.066 467.063 337.034 474.178C334.627 490.659 320.66 504.745 302.064 504.48C283.494 504.216 272.186 496.491 267.451 479.826C264.792 470.462 265.043 460.912 266.736 451.337C269.17 437.621 276.021 427.728 289.724 423.138C293.969 421.71 298.175 422.225 301.839 421.921H301.813ZM301.072 488.317C312.46 488.317 318.041 483.133 319.827 471.705C320.792 465.568 320.872 459.616 319.867 453.466C318.226 443.44 313.227 437.647 304.802 436.933C294.512 436.06 287.277 440.808 284.367 450.596C281.986 458.611 282.251 466.745 284.063 474.84C286.047 483.701 291.985 488.344 301.085 488.331L301.072 488.317Z" fill="#4FAFA8"/>
<path d="M346.635 463.159C346.635 452.539 346.569 441.931 346.661 431.31C346.714 424.83 349.042 422.369 354.663 422.052C360.443 421.721 362.467 424.724 363.062 430.107C363.697 435.821 363.763 441.521 363.697 447.222C363.631 451.917 365.668 453.941 370.336 453.729C374.41 453.557 378.51 453.478 382.571 453.729C388.02 454.06 389.753 451.467 389.62 446.375C389.462 440.476 389.409 434.564 390.295 428.652C391.075 423.441 394.144 421.88 398.839 422.079C403.389 422.264 406.405 424.459 406.431 429.128C406.563 451.785 406.577 474.455 406.431 497.112C406.405 502.323 402.556 504.016 398.032 503.95C393.602 503.897 390.771 501.767 390.467 496.913C390.044 490.207 389.356 483.502 390.282 476.783C390.956 471.902 389.369 469.429 384.039 469.733C379.357 470.011 374.648 469.918 369.966 469.759C365.006 469.588 362.692 471.598 363.34 476.703C364.173 483.224 363.419 489.744 363.194 496.265C362.996 502.243 359.187 503.897 354.214 503.936C349.214 503.989 346.727 501.066 346.688 496.212C346.595 485.181 346.661 474.164 346.661 463.133C346.648 463.133 346.622 463.133 346.608 463.133L346.635 463.159Z" fill="#4FAFA8"/>
<path d="M214.201 463.014C214.201 473.635 214.28 484.255 214.174 494.876C214.108 501.291 211.225 504.134 205.405 504.002C199.387 503.87 197.999 500.206 198.131 494.982C198.303 488.448 198.078 481.914 198.184 475.38C198.25 471.545 196.676 469.72 192.761 469.772C187.047 469.865 181.32 469.865 175.606 469.772C171.638 469.706 170.21 471.637 170.276 475.447C170.395 482.39 170.131 489.334 170.316 496.278C170.475 502.058 167.062 503.843 162.221 503.896C157.566 503.949 155.106 501.489 155.092 496.662C155.079 474.402 155.013 452.142 154.96 429.882C154.947 424.604 157.38 422.012 162.803 422.039C168.385 422.065 170.369 424.948 170.263 430.16C170.144 435.873 170.276 441.6 170.289 447.314C170.289 449.933 170.62 452.406 173.953 452.618C180.05 453.028 186.161 453.398 192.271 453.61C196.266 453.742 198.25 451.732 198.184 447.592C198.091 441.468 198.21 435.331 198.184 429.207C198.157 423.493 201.49 421.933 206.543 421.986C211.529 422.039 214.214 424.102 214.188 429.3C214.148 440.529 214.188 451.771 214.188 463.001H214.214L214.201 463.014Z" fill="#4FAFA8"/>
<path d="M126.099 421.881C131.191 421.272 137.289 423.19 142.949 426.88C146.071 428.917 147.883 431.681 148.002 435.464C148.081 438.361 148.2 441.35 145.357 443.149C142.434 445 140.026 443.4 137.5 441.813C121.774 431.906 108.31 438.546 106.061 457.01C105.175 464.245 105.175 471.268 108.257 477.947C112.568 487.285 122.356 490.935 131.852 486.994C133.162 486.452 134.405 485.724 135.662 485.037C139.365 482.986 143.227 479.733 147.063 484.23C150.078 487.761 147.803 495.988 143.135 498.765C134.167 504.096 124.366 505.815 114.261 503.315C99.4083 499.665 90.4673 488.475 88.8801 473.225C87.6501 461.467 87.6104 449.894 93.6416 439.3C100.361 427.502 110.73 421.669 126.112 421.894L126.099 421.881Z" fill="#4FAFA8"/>
<path d="M239.807 524.98C236.117 524.755 232.413 524.424 229.186 522.48C225.8 520.443 225.43 517.057 226.832 513.87C228.274 510.59 231.17 511.489 233.67 512.732C235.958 513.883 238.352 514.108 240.825 514.028C243.576 513.949 246.5 513.711 246.552 510.047C246.592 506.727 244.568 504.796 241.262 504.386C239.847 504.214 238.405 504.241 236.977 504.175C233.326 504.029 230.363 502.826 230.416 498.58C230.469 494.744 233.141 493.409 236.58 493.197C237.598 493.131 238.63 493.131 239.635 492.972C242.928 492.43 245.19 490.644 244.185 487.152C243.299 484.058 240.614 483.515 237.691 484.639C236.553 485.076 235.456 485.631 234.331 486.121C231.871 487.205 229.517 487.351 227.771 484.891C226.025 482.417 227.189 480.195 228.75 478.172C232.453 473.371 244.053 471.942 250.494 475.447C256.3 478.608 258.615 486.068 255.824 493.118C254.911 495.432 254.091 497.297 255.679 499.929C263.31 512.521 258.178 522.745 243.484 524.676C242.267 524.834 241.037 524.874 239.807 524.953V524.98Z" fill="#4FAFA8"/>
</svg>
